<svg viewBox="0 0 38 38" fill="none" xmlns="http://www.w3.org/2000/svg">
    <path d="M17.6038 1.36141C18.3805 0.604025 19.6195 0.604025 20.3962 1.36141L24.0339 4.9083C24.4011 5.2664 24.8919 5.4697 25.4049 5.47618L30.4851 5.54034C31.5699 5.55404 32.446 6.43012 32.4597 7.51492L32.5238 12.5951C32.5303 13.1081 32.7336 13.5989 33.0917 13.9661L36.6386 17.6038C37.396 18.3805 37.396 19.6195 36.6386 20.3962L33.0917 24.0339C32.7336 24.4011 32.5303 24.8919 32.5238 25.4049L32.4597 30.4851C32.446 31.5699 31.5699 32.446 30.4851 32.4597L25.4049 32.5238C24.8919 32.5303 24.4011 32.7336 24.0339 33.0917L20.3962 36.6386C19.6195 37.396 18.3805 37.396 17.6038 36.6386L13.9661 33.0917C13.5989 32.7336 13.1081 32.5303 12.5951 32.5238L7.51492 32.4597C6.43012 32.446 5.55404 31.5699 5.54034 30.4851L5.47618 25.4049C5.4697 24.8919 5.2664 24.4011 4.9083 24.0339L1.36141 20.3962C0.604025 19.6195 0.604025 18.3805 1.36141 17.6038L4.9083 13.9661C5.2664 13.5989 5.4697 13.1081 5.47618 12.5951L5.54034 7.51492C5.55404 6.43012 6.43012 5.55404 7.51493 5.54034L12.5951 5.47618C13.1081 5.4697 13.5989 5.2664 13.9661 4.9083L17.6038 1.36141Z" fill="#9036A6"/>
    <path fill-rule="evenodd" clip-rule="evenodd" d="M26.7188 14.2843C27.0937 14.6633 27.0937 15.2779 26.7188 15.6569L17.7588 24.7157C17.3839 25.0948 16.7761 25.0948 16.4012 24.7157L11.2812 19.5392C10.9063 19.1602 10.9063 18.5457 11.2812 18.1667C11.6561 17.7876 12.2639 17.7876 12.6388 18.1667L17.08 22.6568L25.3612 14.2843C25.7362 13.9052 26.3439 13.9052 26.7188 14.2843Z" fill="white"/>
</svg>
